<svg fill="none" stroke="currentColor" stroke-linecap="round" stroke-linejoin="round" stroke-width="2" viewBox="0 0 24 24" xmlns="http://www.w3.org/2000/svg">
<path d="m5.15 17.89c5.52-1.52 8.65-6.89 7-12-0.6-1.89-0.65-3.89 0.85-3.89 3.22 0 5 5.5 5 8 0 6.5-4.2 12-10.49 12-2.4 0-5.51 0-5.51-2 0-1.5 1.14-1.55 3.15-2.11z" fill="#ffc157"/>
<path d="m13 2c-1.5 0-1.4496 2.0006-0.84961 3.8906 0.73263 2.2689 0.52105 4.5879-0.42188 6.5996 0.90897 0.53617 1.6946 1.3559 2.2715 2.5098 1.0165-0.51716 2.1686-0.70554 3.2969-0.53906 0.45832-1.3873 0.70312-2.8945 0.70312-4.4609 0-2.5-1.78-8-5-8z" fill="#ffdda4"/>
<path d="m4 13c3.5-2 8-2 10 2a5.5 5.5 0 0 1 8 5"/>
</svg>